<svg width="50" height="50" viewBox="0 0 50 50" fill="none" xmlns="http://www.w3.org/2000/svg">
<circle cx="25" cy="25" r="25" fill="url(#paint0_linear_149_2)"/>
<path d="M25 24.503C26.3371 24.503 27.6194 23.9718 28.5649 23.0264C29.5103 22.0809 30.0415 20.7986 30.0415 19.4615C30.0415 18.1244 29.5103 16.8421 28.5649 15.8966C27.6194 14.9511 26.3371 14.42 25 14.42C23.6629 14.42 22.3806 14.9511 21.4351 15.8966C20.4897 16.8421 19.9585 18.1244 19.9585 19.4615C19.9585 20.7986 20.4897 22.0809 21.4351 23.0264C22.3806 23.9718 23.6629 24.503 25 24.503ZM25 26.718C18.297 26.718 14 30.417 14 32.218V35.581H36V32.218C36 30.04 31.932 26.718 25 26.718Z" fill="white"/>
<defs>
<linearGradient id="paint0_linear_149_2" x1="25" y1="0" x2="25" y2="50" gradientUnits="userSpaceOnUse">
<stop stop-color="#46AE61"/>
<stop offset="1" stop-color="#04BCB9"/>
</linearGradient>
</defs>
</svg>
